<?xml version="1.0" encoding="utf-8"?>
<!-- Generator: Adobe Illustrator 27.8.1, SVG Export Plug-In . SVG Version: 6.00 Build 0)  -->
<svg version="1.1" id="Ebene_1" xmlns="http://www.w3.org/2000/svg" xmlns:xlink="http://www.w3.org/1999/xlink" x="0px" y="0px"
	 viewBox="0 0 56.69 56.69" style="enable-background:new 0 0 56.69 56.69;" xml:space="preserve">
<style type="text/css">
	.st0{fill:#559D8B;}
	.st1{fill-rule:evenodd;clip-rule:evenodd;fill:#FFFFFF;}
</style>
<g>
	<circle class="st0" cx="28.35" cy="28.35" r="25.51"/>
	<g>
		<path class="st1" d="M42.67,35.46h-14.2v-5.69l0.07,0c0.13,0,0.27-0.01,0.4-0.02l0.86-0.09l0.02,0c1.35-0.21,2.51-0.67,3.28-1.31
			c0.06-0.05,0.12-0.11,0.18-0.16c0.09,0.02,0.18,0.03,0.27,0.05c0.23,0.03,0.46,0.05,0.68,0.05c1.28,0,2.49-0.5,3.39-1.41
			c0.91-0.91,1.41-2.11,1.41-3.39c0-0.44-0.06-0.88-0.18-1.31c-0.07-0.26-0.17-0.51-0.28-0.75c0.34-0.37,0.61-0.79,0.81-1.25
			c0.28-0.62,0.42-1.28,0.42-1.96c0-0.94-0.27-1.86-0.79-2.64c-0.45-0.68-1.06-1.23-1.77-1.61c-0.17-1.05-0.7-2.03-1.49-2.76
			c-0.89-0.82-2.04-1.27-3.25-1.27c-0.2,0-0.4,0.01-0.61,0.04c-0.07,0.01-0.13,0.02-0.2,0.03c-0.4-0.41-0.87-0.74-1.4-0.99
			c-0.64-0.3-1.35-0.46-2.04-0.46c-0.71,0-1.4,0.15-2.05,0.46c-0.52,0.25-0.99,0.58-1.39,0.99c-0.07-0.01-0.13-0.02-0.2-0.03
			C24.4,9.94,24.2,9.93,24,9.93c-1.21,0-2.36,0.45-3.25,1.27c-0.79,0.73-1.31,1.7-1.49,2.76c-0.72,0.38-1.33,0.93-1.77,1.61
			c-0.52,0.79-0.79,1.7-0.79,2.64c0,0.68,0.14,1.34,0.42,1.96c0.2,0.46,0.48,0.88,0.81,1.25c-0.12,0.24-0.21,0.49-0.28,0.75
			c-0.12,0.43-0.18,0.87-0.18,1.31c0,1.28,0.5,2.49,1.41,3.39c0.91,0.91,2.11,1.41,3.39,1.41c0.22,0,0.45-0.02,0.68-0.05
			c0.09-0.01,0.18-0.03,0.27-0.05c0.06,0.06,0.13,0.12,0.2,0.18c0.78,0.65,1.91,1.1,3.26,1.3l0.02,0l0.43,0v5.8h-13.1
			c-0.38,0-0.68,0.3-0.68,0.68c0,0.38,0.3,0.68,0.68,0.68h7.46v2.58h-4.14c-0.14-0.68-0.75-1.2-1.48-1.2
			c-0.83,0-1.51,0.68-1.51,1.51c0,0.83,0.68,1.51,1.51,1.51c0.72,0,1.33-0.52,1.48-1.2h4.45c0.17,0,0.31-0.14,0.31-0.31v-2.89h2.17
			v6.01h-2.86c-0.14-0.68-0.75-1.19-1.48-1.19c-0.83,0-1.51,0.67-1.51,1.5c0,0.83,0.68,1.51,1.51,1.51c0.73,0,1.33-0.51,1.48-1.2
			h3.17c0.17,0,0.31-0.14,0.31-0.31v-6.32h2.38v8.34c-0.68,0.14-1.2,0.75-1.2,1.48c0,0.83,0.68,1.51,1.51,1.51
			c0.83,0,1.51-0.68,1.51-1.51c0-0.73-0.52-1.33-1.2-1.48v-8.34h2.38v6.32c0,0.17,0.14,0.31,0.31,0.31h3.17
			c0.14,0.69,0.75,1.2,1.48,1.2c0.83,0,1.51-0.67,1.51-1.51c0-0.83-0.67-1.5-1.51-1.5c-0.72,0-1.33,0.51-1.48,1.19h-2.86v-6.01h2.17
			v2.89c0,0.17,0.14,0.31,0.31,0.31h4.45c0.14,0.68,0.75,1.2,1.48,1.2c0.83,0,1.51-0.68,1.51-1.51c0-0.83-0.68-1.51-1.51-1.51
			c-0.72,0-1.33,0.52-1.48,1.2h-4.14v-2.58h8.99c0.38,0,0.68-0.3,0.68-0.68C43.35,35.76,43.05,35.46,42.67,35.46z M28.22,28.46
			c-0.32,0-0.65-0.02-0.97-0.05c-0.03,0-0.06-0.01-0.09-0.01c-1.22-0.14-2.25-0.51-2.9-1.05c-0.12-0.1-0.23-0.21-0.32-0.32
			l-0.28-0.33l-0.41,0.12c-0.15,0.04-0.32,0.08-0.48,0.1c-0.16,0.02-0.33,0.03-0.49,0.03c-0.93,0-1.81-0.36-2.46-1.02
			c-0.66-0.66-1.02-1.53-1.02-2.46c0-0.33,0.04-0.65,0.13-0.95c0.09-0.31,0.22-0.6,0.39-0.88l0.29-0.47l-0.41-0.37
			c-0.36-0.33-0.66-0.73-0.86-1.18c-0.2-0.45-0.3-0.92-0.3-1.42c0-0.69,0.2-1.35,0.57-1.92c0.38-0.57,0.91-1.02,1.54-1.29l0.37-0.16
			l0.03-0.4c0.07-0.87,0.46-1.68,1.11-2.28c0.64-0.59,1.48-0.92,2.36-0.92c0.16,0,0.31,0.01,0.44,0.03
			c0.14,0.02,0.29,0.05,0.43,0.08l0.41,0.11l0.27-0.32c0.33-0.4,0.74-0.72,1.21-0.94c0.46-0.22,0.97-0.33,1.49-0.33
			c0.51,0,1.02,0.12,1.48,0.33c0.46,0.22,0.88,0.54,1.2,0.93l0.28,0.33l0.4-0.1c0.14-0.04,0.29-0.07,0.43-0.08
			c0.14-0.02,0.29-0.03,0.44-0.03c0.88,0,1.72,0.33,2.36,0.92c0.65,0.6,1.04,1.41,1.11,2.28l0.03,0.4L36.36,15
			c0.63,0.27,1.16,0.71,1.54,1.29c0.38,0.57,0.57,1.23,0.57,1.92c0,0.5-0.1,0.98-0.3,1.42c-0.2,0.44-0.5,0.85-0.86,1.18l-0.41,0.37
			l0.29,0.47c0.17,0.27,0.3,0.57,0.39,0.88c0.09,0.31,0.13,0.63,0.13,0.95c0,0.93-0.36,1.81-1.02,2.46
			c-0.66,0.66-1.53,1.02-2.46,1.02c-0.17,0-0.34-0.01-0.49-0.03c-0.17-0.02-0.33-0.06-0.48-0.1l-0.41-0.12l-0.28,0.33
			c-0.09,0.1-0.19,0.2-0.3,0.3c-0.65,0.54-1.69,0.92-2.93,1.06c-0.01,0-0.03,0-0.04,0c-0.35,0.04-0.7,0.06-1.04,0.06L28.22,28.46z"
			/>
		<path class="st1" d="M28.18,12.89c-0.43-0.12-0.84-0.18-1.22-0.18c-2.03,0-2.82,1.62-3.09,2.48c-0.05,0-0.09,0-0.14,0
			c-1.24,0-2.1,0.6-2.6,1.1c-0.28,0.28-0.54,0.62-0.73,0.98c-0.17,0.31-0.29,0.63-0.34,0.88c-0.06,0.34,0.01,0.63,0.2,0.82
			c0.12,0.12,0.29,0.19,0.46,0.19c0.18,0,0.34-0.07,0.46-0.19c0.17-0.17,0.23-0.4,0.17-0.63c0.03-0.12,0.1-0.29,0.19-0.45
			c0.13-0.24,0.31-0.48,0.51-0.68c0.33-0.33,0.88-0.72,1.69-0.72c0.16,0,0.33,0.02,0.5,0.05c0.04,0.01,0.08,0.01,0.12,0.01
			c0.24,0,0.46-0.14,0.58-0.34l0.04,0.01l0.03-0.22c0.01-0.08,0.3-1.97,2.02-1.97c0.25,0,0.52,0.04,0.81,0.12
			c0.06,0.01,0.11,0.02,0.17,0.02c0.3,0,0.56-0.2,0.63-0.49c0.05-0.17,0.02-0.35-0.07-0.5C28.49,13.04,28.35,12.93,28.18,12.89z"/>
	</g>
</g>
</svg>
