<?xml version="1.0" encoding="UTF-8"?>
<!DOCTYPE svg PUBLIC "-//W3C//DTD SVG 1.1//EN" "http://www.w3.org/Graphics/SVG/1.1/DTD/svg11.dtd">
<svg xmlns="http://www.w3.org/2000/svg" version="1.1" width="50px" height="50px" style="shape-rendering:geometricPrecision; text-rendering:geometricPrecision; image-rendering:optimizeQuality; fill-rule:evenodd; clip-rule:evenodd" xmlns:xlink="http://www.w3.org/1999/xlink">
<g><path style="opacity:0.941" fill="#109745" d="M 19.5,1.5 C 40.4057,1.56953 49.239,11.9029 46,32.5C 37.6789,47.5415 25.8456,51.0415 10.5,43C 0.839184,33.9255 -0.994149,23.4255 5,11.5C 8.68858,6.28043 13.5219,2.9471 19.5,1.5 Z"/></g>
<g><path style="opacity:1" fill="#dbf0e4" d="M 14.5,15.5 C 15.3764,15.3691 16.0431,15.7025 16.5,16.5C 12.5,21.8333 12.5,27.1667 16.5,32.5C 16.1667,32.8333 15.8333,33.1667 15.5,33.5C 10.6342,27.7659 10.3008,21.7659 14.5,15.5 Z"/></g>
<g><path style="opacity:1" fill="#e5f4eb" d="M 34.5,13.5 C 35.7927,12.3552 36.9593,12.6885 38,14.5C 40.9225,20.3252 41.2559,26.3252 39,32.5C 38.2177,35.1877 36.7177,36.1877 34.5,35.5C 41.1088,28.0154 41.1088,20.6821 34.5,13.5 Z"/></g>
<g><path style="opacity:1" fill="#d9efe2" d="M 17.5,18.5 C 18.2389,18.369 18.9056,18.5357 19.5,19C 16.8783,22.5354 16.8783,26.0354 19.5,29.5C 19.1667,29.8333 18.8333,30.1667 18.5,30.5C 14.8961,26.8493 14.5628,22.8493 17.5,18.5 Z"/></g>
<g><path style="opacity:1" fill="#f3faf6" d="M 22.5,19.5 C 28.8026,19.9239 30.4692,22.7572 27.5,28C 19.1836,28.8375 17.517,26.0042 22.5,19.5 Z"/></g>
<g><path style="opacity:1" fill="#f3faf6" d="M 32.5,15.5 C 35.9239,17.1655 37.2573,19.9988 36.5,24C 37.0385,27.8331 35.8718,30.9998 33,33.5C 33.9811,30.6276 34.8144,27.6276 35.5,24.5C 35.3298,21.1738 34.3298,18.1738 32.5,15.5 Z"/></g>
<g><path style="opacity:1" fill="#def1e5" d="M 29.5,18.5 C 34.4905,21.8633 34.8238,25.8633 30.5,30.5C 30.1667,30.1667 29.8333,29.8333 29.5,29.5C 32.1435,25.7684 32.1435,22.1017 29.5,18.5 Z"/></g>
<g><path style="opacity:1" fill="#d6eee0" d="M 12.5,12.5 C 13.0431,12.56 13.3764,12.8933 13.5,13.5C 10.9057,16.5216 9.57235,20.0216 9.5,24C 9.91088,28.5429 11.0775,32.7095 13,36.5C 5.91728,28.6095 5.75061,20.6095 12.5,12.5 Z"/></g>
</svg>
