<?xml version="1.0" encoding="UTF-8"?>
<!DOCTYPE svg PUBLIC "-//W3C//DTD SVG 1.1//EN" "http://www.w3.org/Graphics/SVG/1.1/DTD/svg11.dtd">
<svg xmlns="http://www.w3.org/2000/svg" version="1.1" width="50px" height="50px" style="shape-rendering:geometricPrecision; text-rendering:geometricPrecision; image-rendering:optimizeQuality; fill-rule:evenodd; clip-rule:evenodd" xmlns:xlink="http://www.w3.org/1999/xlink">
<g><path style="opacity:0.932" fill="#579e8c" d="M 19.5,1.5 C 40.4057,1.56953 49.239,11.9029 46,32.5C 37.6789,47.5415 25.8456,51.0415 10.5,43C 0.839184,33.9255 -0.994149,23.4255 5,11.5C 8.68858,6.28043 13.5219,2.9471 19.5,1.5 Z"/></g>
<g><path style="opacity:1" fill="#cde1dc" d="M 35.5,8.5 C 37.9732,8.94731 38.1399,9.94731 36,11.5C 35.5172,10.552 35.3505,9.55198 35.5,8.5 Z"/></g>
<g><path style="opacity:1" fill="#bfdad3" d="M 37.5,13.5 C 38.675,13.281 39.675,13.6143 40.5,14.5C 38.9483,15.7979 37.9483,15.4646 37.5,13.5 Z"/></g>
<g><path style="opacity:1" fill="#d7e8e4" d="M 30.5,6.5 C 31.3459,9.48526 33.1793,11.8186 36,13.5C 36.7203,15.1124 36.5536,16.6124 35.5,18C 38.4637,18.8403 38.797,19.8403 36.5,21C 38.1244,24.2056 37.4578,26.8723 34.5,29C 26.4508,29.8016 18.4508,29.6349 10.5,28.5C 7.02449,23.1869 8.35782,19.8536 14.5,18.5C 14.9106,12.9482 17.9106,10.7816 23.5,12C 27.4625,15.6907 28.1291,15.3574 25.5,11C 27.1075,11.0187 28.7741,11.1854 30.5,11.5C 30.5,9.83333 30.5,8.16667 30.5,6.5 Z"/></g>
<g><path style="opacity:1" fill="#589e8d" d="M 17.5,13.5 C 19.5273,13.3379 21.5273,13.5045 23.5,14C 25.2735,14.8808 25.9402,16.0475 25.5,17.5C 27.0983,16.5153 28.765,16.3486 30.5,17C 33.0481,18.9219 35.0481,21.2553 36.5,24C 35.8742,24.7504 35.3742,25.5838 35,26.5C 26.8922,27.8146 18.7255,27.8146 10.5,26.5C 9.02465,23.7546 9.69132,21.588 12.5,20C 14.4406,19.2571 16.2739,19.4238 18,20.5C 18.1667,20.1667 18.3333,19.8333 18.5,19.5C 17.5,18.8333 16.5,18.1667 15.5,17.5C 16.1799,16.1401 16.8466,14.8068 17.5,13.5 Z"/></g>
<g><path style="opacity:1" fill="#5da190" d="M 30.5,12.5 C 34.2518,12.5007 35.2518,14.1674 33.5,17.5C 30.922,16.3576 29.922,14.6909 30.5,12.5 Z"/></g>
<g><path style="opacity:1" fill="#e4efec" d="M 31.5,32.5 C 30.8333,32.8333 30.1667,33.1667 29.5,33.5C 29.7107,31.5759 30.3774,31.2426 31.5,32.5 Z"/></g>
<g><path style="opacity:1" fill="#67a796" d="M 31.5,32.5 C 31.5394,33.5832 31.8728,34.5832 32.5,35.5C 29.9453,38.2508 28.9453,37.5841 29.5,33.5C 30.1667,33.1667 30.8333,32.8333 31.5,32.5 Z"/></g>
<g><path style="opacity:1" fill="#daeae6" d="M 31.5,32.5 C 33.6469,33.9321 33.9802,35.7655 32.5,38C 27.4952,38.8081 26.4952,37.3081 29.5,33.5C 28.9453,37.5841 29.9453,38.2508 32.5,35.5C 31.8728,34.5832 31.5394,33.5832 31.5,32.5 Z"/></g>
<g><path style="opacity:1" fill="#bedad2" d="M 14.5,33.5 C 16.3769,34.6591 16.8769,36.3258 16,38.5C 9.59045,38.6253 8.92378,36.292 14,31.5C 14.4643,32.0944 14.631,32.7611 14.5,33.5 Z"/></g>
<g><path style="opacity:1" fill="#5ea291" d="M 14.5,33.5 C 16.0337,35.3421 15.7003,36.6754 13.5,37.5C 12.1908,35.7605 12.5241,34.4271 14.5,33.5 Z"/></g>
<g><path style="opacity:1" fill="#c5ded7" d="M 24.5,36.5 C 25.5983,37.6009 25.765,38.9343 25,40.5C 18.557,40.5619 17.8904,38.2286 23,33.5C 24.0386,34.2438 24.5386,35.2438 24.5,36.5 Z"/></g>
<g><path style="opacity:1" fill="#62a493" d="M 24.5,36.5 C 24.5852,37.9953 23.9185,38.9953 22.5,39.5C 21.0891,36.6232 21.7558,35.6232 24.5,36.5 Z"/></g>
</svg>
