<?xml version="1.0" encoding="utf-8"?>
<!-- Generator: Adobe Illustrator 27.8.1, SVG Export Plug-In . SVG Version: 6.00 Build 0)  -->
<svg version="1.1" id="Ebene_1" xmlns="http://www.w3.org/2000/svg" xmlns:xlink="http://www.w3.org/1999/xlink" x="0px" y="0px"
	 viewBox="0 0 56.69 56.69" style="enable-background:new 0 0 56.69 56.69;" xml:space="preserve">
<style type="text/css">
	.st0{fill:#559D8B;}
	.st1{fill-rule:evenodd;clip-rule:evenodd;fill:#FFFFFF;}
	.st2{fill:#FFFFFF;}
</style>
<circle class="st0" cx="28.35" cy="28.35" r="25.51"/>
<g>
	<g>
		<path class="st1" d="M39.44,24.44c-2.09,0.27-4.02-1.21-4.29-3.3c-0.27-2.09,1.21-4.01,3.3-4.29c2.09-0.27,4.01,1.21,4.29,3.3
			C43.01,22.24,41.54,24.17,39.44,24.44z M38.57,17.75c-1.6,0.21-2.73,1.68-2.52,3.27c0.21,1.6,1.68,2.73,3.27,2.52
			c1.6-0.21,2.73-1.68,2.52-3.27S40.17,17.54,38.57,17.75z"/>
		<path class="st1" d="M38.33,15.89c-0.25,0.03-0.48-0.14-0.51-0.39l-0.24-1.87c-0.03-0.25,0.15-0.48,0.39-0.51
			c0.25-0.03,0.47,0.15,0.51,0.39l0.24,1.87C38.75,15.63,38.58,15.86,38.33,15.89z"/>
		<path class="st1" d="M42.21,16.94c-0.4,0.05-0.67-0.41-0.42-0.73l1.15-1.49c0.15-0.2,0.44-0.24,0.64-0.08
			c0.2,0.15,0.24,0.44,0.08,0.64l-1.15,1.49C42.43,16.86,42.32,16.92,42.21,16.94z"/>
		<path class="st1" d="M46.08,20.17l-1.88,0.24c-0.25,0.03-0.47-0.15-0.51-0.39c-0.03-0.25,0.14-0.47,0.39-0.51l1.88-0.24
			c0.25-0.03,0.47,0.14,0.51,0.39S46.33,20.14,46.08,20.17z"/>
		<path class="st1" d="M44.66,25.44c-0.11,0.01-0.23-0.01-0.34-0.09l-1.49-1.15c-0.2-0.15-0.24-0.44-0.08-0.64
			c0.15-0.2,0.44-0.23,0.64-0.08l1.49,1.15C45.2,24.88,45.06,25.39,44.66,25.44z"/>
		<path class="st1" d="M39.93,28.17c-0.25,0.03-0.48-0.15-0.51-0.39l-0.24-1.87c-0.03-0.25,0.15-0.47,0.39-0.51
			c0.25-0.03,0.47,0.14,0.51,0.39l0.24,1.87C40.35,27.91,40.18,28.14,39.93,28.17z"/>
		<path class="st1" d="M34.66,26.75c-0.39,0.05-0.66-0.4-0.42-0.72l1.15-1.5c0.15-0.2,0.44-0.23,0.64-0.08
			c0.2,0.16,0.23,0.44,0.08,0.64l-1.15,1.5C34.88,26.68,34.77,26.74,34.66,26.75z"/>
		<path class="st1" d="M33.8,21.78l-1.87,0.24c-0.25,0.03-0.47-0.15-0.51-0.39s0.14-0.47,0.39-0.51l1.87-0.24
			c0.25-0.03,0.47,0.14,0.51,0.39C34.22,21.51,34.05,21.74,33.8,21.78z"/>
		<path class="st1" d="M34.85,17.9c-0.12,0.02-0.24-0.02-0.34-0.09l-1.5-1.15c-0.2-0.16-0.23-0.44-0.08-0.64
			c0.15-0.2,0.44-0.24,0.64-0.08l1.5,1.15C35.39,17.34,35.24,17.85,34.85,17.9z"/>
	</g>
	<path class="st0" d="M23.45,22.52c0,0,2.79-7.35,9.48-3.04l1.23,1.61c0,0,1.7-0.26,2.98,0c2.27,0.46,2.04,2.62,2.73,3.13
		c0.69,0.51,1.7-0.36,2.01,0.7c0.31,1.06,2.1,3.76,0.54,6.04c-0.92,1.34-3.84,1.39-8.26,1.39s-12.27,0-12.27,0s-3.63-1.06-3.63-4.14
		c0-3.5,5.19-4.43,5.19-4.43V22.52z"/>
	<path class="st2" d="M42.91,25.52c-0.57-0.89-1.45-1.59-2.56-2.02c-0.51-1.63-1.88-2.86-3.56-3.14c-0.75-0.13-1.51-0.06-2.22,0.18
		c-0.26-0.4-0.57-0.78-0.91-1.11c-1.7-1.63-4.77-2.7-7.52-1.17c-1.83,1.01-3.03,2.95-3.18,5.11c-2.17,0.37-3.99,1.79-4.71,3.71
		l-0.02,0.06c-0.46,1.27-0.27,2.64,0.52,3.76c0.81,1.16,2.14,1.85,3.55,1.85l0,0h17.07c2.1,0,3.92-1.54,4.23-3.58
		C43.8,27.84,43.55,26.54,42.91,25.52z M42.75,29.04c-0.25,1.63-1.7,2.86-3.38,2.86H22.29c-1.13,0-2.19-0.56-2.85-1.49
		c-0.63-0.89-0.78-1.98-0.42-2.98l0,0c0,0,0.02-0.04,0.02-0.04c0.64-1.73,2.36-2.99,4.37-3.21c0,0,0,0,0,0c0,0,0,0,0,0
		c1.04-0.13,2.11,0.04,3.09,0.5c0.06,0.03,0.12,0.04,0.18,0.04c0.16,0,0.32-0.09,0.39-0.25c0.1-0.21,0.01-0.47-0.21-0.57
		c-0.96-0.45-2-0.65-3.04-0.61c0.17-1.81,1.18-3.42,2.71-4.27c0.77-0.43,1.6-0.61,2.42-0.61c1.57,0,3.09,0.69,4.1,1.65
		c0.27,0.26,0.5,0.55,0.71,0.87c-0.52,0.3-0.98,0.7-1.35,1.18c-0.14,0.19-0.11,0.46,0.08,0.6c0.08,0.06,0.17,0.09,0.26,0.09
		c0.13,0,0.25-0.06,0.34-0.17c0.39-0.5,0.9-0.9,1.47-1.15c0,0,0,0,0,0c0,0,0,0,0,0c0.65-0.29,1.37-0.38,2.09-0.26
		c1.42,0.24,2.58,1.31,2.94,2.73c0.04,0.14,0.14,0.25,0.27,0.3c1.02,0.36,1.83,0.96,2.33,1.75C42.72,26.83,42.92,27.91,42.75,29.04z
		"/>
	<g>
		<path class="st2" d="M22.62,41.77c-0.89,0-1.74-0.48-2.17-1.21c-0.35-0.61-0.35-1.32,0.01-1.94l1.95-3.38
			c0.05-0.08,0.14-0.14,0.24-0.14c0,0,0.02,0,0.03,0c0.16,0,0.24,0.08,0.27,0.15l1.95,3.37c0.36,0.62,0.36,1.33,0.01,1.94
			c-0.43,0.74-1.28,1.21-2.17,1.21c0,0-0.04,0-0.06,0C22.66,41.77,22.64,41.77,22.62,41.77z M20.93,38.89
			c-0.26,0.43-0.26,0.97,0,1.4c0.32,0.57,0.99,0.92,1.75,0.92s1.43-0.35,1.75-0.91c0.26-0.44,0.26-0.97,0-1.41l-1.75-3.02
			L20.93,38.89z"/>
		<path class="st2" d="M24.76,38.7l-1.95-3.38c-0.03-0.06-0.1-0.06-0.16-0.06c-0.04,0-0.08,0.02-0.1,0.06l-1.95,3.38
			c-0.83,1.43,0.52,2.95,2.08,2.91C24.24,41.65,25.58,40.13,24.76,38.7z M24.56,40.38c-0.74,1.33-3.03,1.33-3.78,0
			c-0.29-0.48-0.29-1.08,0-1.57l1.89-3.26l1.89,3.26C24.85,39.29,24.85,39.89,24.56,40.38z"/>
		<path class="st2" d="M22.68,40.89c-0.15,0-0.27-0.12-0.27-0.27c0-0.07,0.03-0.14,0.08-0.19c0.05-0.05,0.12-0.08,0.19-0.08
			c0.62,0,1.14-0.35,1.28-0.85l0-0.02l0,0c0.03-0.11,0.14-0.19,0.26-0.19c0.02,0,0.05,0,0.07,0.01c0.15,0.04,0.23,0.19,0.19,0.33
			C24.28,40.37,23.54,40.89,22.68,40.89L22.68,40.89z"/>
		<path class="st2" d="M24.25,39.45c-0.06-0.02-0.12,0.02-0.14,0.08c0,0,0,0,0,0c-0.15,0.57-0.74,0.97-1.43,0.97
			c-0.06,0-0.11,0.05-0.11,0.11c0,0.06,0.05,0.11,0.11,0.11c0.79,0,1.47-0.47,1.65-1.14C24.34,39.53,24.31,39.47,24.25,39.45
			C24.25,39.45,24.25,39.45,24.25,39.45z"/>
	</g>
	<g>
		<path class="st2" d="M30.76,43.42c-0.89,0-1.74-0.48-2.17-1.21c-0.35-0.61-0.35-1.32,0.01-1.94l1.95-3.38
			c0.05-0.08,0.14-0.14,0.24-0.14c0,0,0.02,0,0.03,0c0.16,0,0.24,0.08,0.27,0.15l1.95,3.37c0.36,0.62,0.36,1.33,0.01,1.94
			c-0.43,0.74-1.28,1.21-2.17,1.21c0,0-0.04,0-0.06,0C30.8,43.42,30.78,43.42,30.76,43.42z M29.07,40.54c-0.26,0.43-0.26,0.97,0,1.4
			c0.32,0.57,0.99,0.92,1.75,0.92s1.43-0.35,1.75-0.91c0.26-0.44,0.26-0.97,0-1.41l-1.75-3.02L29.07,40.54z"/>
		<path class="st2" d="M32.9,40.35l-1.95-3.38c-0.03-0.06-0.1-0.06-0.16-0.06c-0.04,0-0.08,0.02-0.1,0.06l-1.95,3.38
			c-0.83,1.43,0.52,2.95,2.08,2.91C32.38,43.3,33.73,41.78,32.9,40.35z M32.71,42.03c-0.74,1.33-3.03,1.33-3.78,0
			c-0.29-0.48-0.29-1.08,0-1.57l1.89-3.26l1.89,3.26C32.99,40.94,33,41.54,32.71,42.03z"/>
		<path class="st2" d="M30.82,42.54c-0.15,0-0.27-0.12-0.27-0.27c0-0.07,0.03-0.14,0.08-0.19s0.12-0.08,0.19-0.08
			c0.62,0,1.14-0.35,1.28-0.85l0-0.02l0,0c0.03-0.11,0.14-0.19,0.26-0.19c0.02,0,0.05,0,0.07,0.01c0.15,0.04,0.23,0.19,0.19,0.33
			C32.43,42.02,31.69,42.54,30.82,42.54L30.82,42.54z"/>
		<path class="st2" d="M32.39,41.1c-0.06-0.02-0.12,0.02-0.14,0.08c0,0,0,0,0,0c-0.15,0.57-0.74,0.97-1.43,0.97
			c-0.06,0-0.11,0.05-0.11,0.11c0,0.06,0.05,0.11,0.11,0.11c0.79,0,1.47-0.47,1.65-1.14C32.49,41.18,32.45,41.12,32.39,41.1
			C32.39,41.1,32.39,41.1,32.39,41.1z"/>
	</g>
	<g>
		<path class="st2" d="M37.95,41.21c-0.89,0-1.74-0.48-2.17-1.21c-0.35-0.61-0.35-1.32,0.01-1.94l1.95-3.38
			c0.05-0.08,0.14-0.14,0.24-0.14c0,0,0.02,0,0.03,0c0.16,0,0.24,0.08,0.27,0.15l1.95,3.37c0.36,0.62,0.36,1.33,0.01,1.94
			c-0.43,0.74-1.28,1.21-2.17,1.21c0,0-0.04,0-0.06,0C37.99,41.21,37.97,41.21,37.95,41.21z M36.26,38.33
			c-0.26,0.43-0.26,0.97,0,1.4c0.32,0.57,0.99,0.92,1.75,0.92c0.76,0,1.43-0.35,1.75-0.91c0.26-0.44,0.26-0.97,0-1.41l-1.75-3.02
			L36.26,38.33z"/>
		<path class="st2" d="M40.09,38.14l-1.95-3.38c-0.03-0.06-0.1-0.06-0.16-0.06c-0.04,0-0.08,0.02-0.1,0.06l-1.95,3.38
			c-0.83,1.43,0.52,2.95,2.08,2.91C39.57,41.09,40.92,39.57,40.09,38.14z M39.9,39.82c-0.74,1.33-3.03,1.33-3.78,0
			c-0.29-0.48-0.29-1.08,0-1.57L38.01,35l1.89,3.26C40.18,38.74,40.18,39.34,39.9,39.82z"/>
		<path class="st2" d="M38.01,40.33c-0.15,0-0.27-0.12-0.27-0.27c0-0.07,0.03-0.14,0.08-0.19c0.05-0.05,0.12-0.08,0.19-0.08
			c0.62,0,1.14-0.35,1.28-0.85l0-0.02l0,0c0.03-0.11,0.14-0.19,0.26-0.19c0.02,0,0.05,0,0.07,0.01c0.15,0.04,0.23,0.19,0.19,0.33
			C39.61,39.81,38.87,40.33,38.01,40.33L38.01,40.33z"/>
		<path class="st2" d="M39.58,38.89c-0.06-0.02-0.12,0.02-0.14,0.08c0,0,0,0,0,0c-0.15,0.57-0.74,0.97-1.43,0.97
			c-0.06,0-0.11,0.05-0.11,0.11c0,0.06,0.05,0.11,0.11,0.11c0.79,0,1.47-0.47,1.65-1.14C39.67,38.97,39.64,38.91,39.58,38.89
			C39.58,38.89,39.58,38.89,39.58,38.89z"/>
	</g>
	<g>
		<path class="st1" d="M14.08,39.85c-2.28,0-4.13-1.85-4.13-4.13c0-1.2,0.52-2.34,1.43-3.13V20.42c0-1.49,1.21-2.7,2.7-2.7
			c1.49,0,2.7,1.21,2.7,2.7V32.6c0.91,0.79,1.43,1.92,1.43,3.13C18.21,38,16.35,39.85,14.08,39.85z M14.08,18.43
			c-1.1,0-1.99,0.89-1.99,1.99v12.35c0,0.1-0.05,0.21-0.13,0.27c-0.82,0.65-1.3,1.63-1.3,2.68c0,1.89,1.54,3.42,3.42,3.42
			c1.89,0,3.43-1.54,3.43-3.42c0-1.05-0.47-2.03-1.3-2.68c-0.08-0.07-0.13-0.17-0.13-0.27V20.42
			C16.07,19.32,15.18,18.43,14.08,18.43z"/>
		<path class="st1" d="M16.68,32.64V20.42c0-1.43-1.17-2.6-2.6-2.6s-2.6,1.17-2.6,2.6v12.22c-0.91,0.77-1.43,1.89-1.43,3.08
			c0,2.22,1.81,4.03,4.03,4.03c2.22,0,4.04-1.81,4.04-4.03C18.11,34.53,17.59,33.41,16.68,32.64z M14.08,39.24
			c-1.94,0-3.52-1.58-3.52-3.52c0-1.08,0.48-2.09,1.33-2.76c0.06-0.05,0.1-0.12,0.1-0.2V20.42c0-1.15,0.93-2.09,2.09-2.09
			c1.15,0,2.09,0.93,2.09,2.09v12.35c0,0.08,0.04,0.15,0.1,0.2c0.85,0.67,1.33,1.68,1.33,2.76C17.6,37.67,16.02,39.24,14.08,39.24z"
			/>
		<path class="st1" d="M14.08,38c-1.28,0-2.32-1.04-2.32-2.32c0-1.15,0.84-2.12,1.97-2.29V21.51c0-0.19,0.16-0.35,0.35-0.35
			c0.19,0,0.35,0.16,0.35,0.35v1.7h0.98c0.19,0,0.35,0.16,0.35,0.35c0,0.19-0.16,0.35-0.35,0.35h-0.98v1.32h0.98
			c0.19,0,0.35,0.16,0.35,0.35c0,0.19-0.16,0.35-0.35,0.35h-0.98v1.32h0.98c0.19,0,0.35,0.16,0.35,0.35c0,0.19-0.16,0.35-0.35,0.35
			h-0.98v1.32h0.98c0.19,0,0.35,0.16,0.35,0.35c0,0.19-0.16,0.35-0.35,0.35h-0.98v1.32h0.98c0.19,0,0.35,0.16,0.35,0.35
			c0,0.19-0.16,0.35-0.35,0.35h-0.98v1.37c1.13,0.17,1.97,1.14,1.97,2.29C16.4,36.96,15.36,38,14.08,38z M14.08,34.06
			c-0.89,0-1.62,0.73-1.62,1.62c0,0.89,0.72,1.62,1.62,1.62c0.89,0,1.62-0.73,1.62-1.62C15.69,34.78,14.97,34.06,14.08,34.06z"/>
		<path class="st1" d="M14.34,33.47v-1.55h1.07c0.14,0,0.26-0.11,0.26-0.26c0-0.14-0.12-0.26-0.26-0.26h-1.07v-1.51h1.07
			c0.14,0,0.26-0.11,0.26-0.26s-0.12-0.26-0.26-0.26h-1.07v-1.51h1.07c0.14,0,0.26-0.11,0.26-0.26c0-0.14-0.12-0.26-0.26-0.26h-1.07
			v-1.51h1.07c0.14,0,0.26-0.11,0.26-0.26c0-0.14-0.12-0.26-0.26-0.26h-1.07v-1.51h1.07c0.14,0,0.26-0.11,0.26-0.26
			c0-0.14-0.12-0.26-0.26-0.26h-1.07v-1.79c0-0.14-0.12-0.26-0.26-0.26c-0.14,0-0.26,0.11-0.26,0.26v11.95
			c-1.1,0.13-1.97,1.07-1.97,2.21c0,1.23,1,2.22,2.22,2.22c1.23,0,2.23-1,2.23-2.22C16.3,34.54,15.44,33.59,14.34,33.47z
			 M14.08,37.39c-0.94,0-1.71-0.77-1.71-1.71s0.77-1.71,1.71-1.71c0.94,0,1.71,0.77,1.71,1.71S15.02,37.39,14.08,37.39z"/>
	</g>
</g>
</svg>
