<?xml version="1.0" encoding="utf-8"?>
<!-- Generator: Adobe Illustrator 27.8.1, SVG Export Plug-In . SVG Version: 6.00 Build 0)  -->
<svg version="1.1" xmlns="http://www.w3.org/2000/svg" xmlns:xlink="http://www.w3.org/1999/xlink" x="0px" y="0px"
	 viewBox="0 0 56.69 56.69" style="enable-background:new 0 0 56.69 56.69;" xml:space="preserve">
<style type="text/css">
	.st0{fill:#F39200;}
	.st1{fill-rule:evenodd;clip-rule:evenodd;fill:#FFFFFF;}
	.st2{fill:#FFFFFF;}
</style>
<g id="Ebene_2">
	<circle class="st0" cx="28.35" cy="28.35" r="25.51"/>
</g>
<g id="Ebene_1">
	<g>
		<path class="st1" d="M37.63,23.04c-2.68,0.35-5.14-1.55-5.49-4.22c-0.35-2.67,1.55-5.13,4.22-5.48c2.68-0.35,5.13,1.55,5.48,4.21
			C42.19,20.23,40.3,22.69,37.63,23.04z M36.51,14.49c-2.04,0.27-3.49,2.14-3.22,4.19c0.27,2.04,2.14,3.49,4.19,3.22
			c2.04-0.27,3.49-2.14,3.22-4.19C40.43,15.67,38.55,14.22,36.51,14.49z"/>
		<path class="st1" d="M36.2,12.12c-0.32,0.04-0.61-0.18-0.65-0.5l-0.31-2.39c-0.04-0.32,0.19-0.61,0.5-0.65
			c0.32-0.04,0.61,0.19,0.65,0.5l0.31,2.39C36.74,11.79,36.52,12.07,36.2,12.12z"/>
		<path class="st1" d="M41.16,13.45c-0.51,0.07-0.85-0.52-0.54-0.93l1.47-1.91c0.2-0.26,0.56-0.3,0.81-0.11
			c0.26,0.19,0.3,0.56,0.11,0.81l-1.47,1.91C41.44,13.35,41.3,13.44,41.16,13.45z"/>
		<path class="st1" d="M46.11,17.59l-2.4,0.31c-0.32,0.04-0.61-0.19-0.65-0.5c-0.04-0.32,0.18-0.61,0.5-0.65l2.4-0.31
			c0.32-0.04,0.61,0.18,0.65,0.5C46.65,17.25,46.43,17.55,46.11,17.59z"/>
		<path class="st1" d="M44.29,24.33c-0.14,0.02-0.3-0.02-0.43-0.11l-1.91-1.48c-0.26-0.19-0.3-0.56-0.11-0.81
			c0.19-0.25,0.56-0.3,0.81-0.11l1.91,1.48C44.98,23.61,44.8,24.26,44.29,24.33z"/>
		<path class="st1" d="M38.25,27.81c-0.32,0.04-0.61-0.19-0.65-0.5l-0.31-2.39c-0.04-0.32,0.19-0.61,0.5-0.65
			c0.32-0.04,0.61,0.18,0.65,0.5l0.31,2.39C38.79,27.48,38.57,27.77,38.25,27.81z"/>
		<path class="st1" d="M31.5,26c-0.5,0.07-0.85-0.51-0.53-0.93l1.47-1.92c0.19-0.25,0.56-0.3,0.81-0.11c0.25,0.2,0.3,0.56,0.11,0.81
			l-1.47,1.92C31.79,25.9,31.65,25.98,31.5,26z"/>
		<path class="st1" d="M30.42,19.64l-2.39,0.31c-0.32,0.04-0.61-0.19-0.65-0.5s0.18-0.61,0.5-0.65l2.39-0.31
			c0.32-0.04,0.61,0.18,0.65,0.5C30.95,19.3,30.73,19.6,30.42,19.64z"/>
		<path class="st1" d="M31.75,14.68c-0.15,0.02-0.3-0.02-0.43-0.12l-1.92-1.47c-0.25-0.2-0.3-0.56-0.11-0.81
			c0.2-0.26,0.56-0.3,0.81-0.11l1.92,1.47C32.44,13.96,32.26,14.62,31.75,14.68z"/>
	</g>
	<path class="st0" d="M17.18,20.59c0,0,3.56-9.39,12.11-3.89l1.57,2.06c0,0,2.17-0.33,3.81,0c2.9,0.58,2.61,3.35,3.49,4.01
		s2.17-0.46,2.57,0.89c0.4,1.35,2.68,4.81,0.69,7.72c-1.17,1.71-4.91,1.78-10.55,1.78s-15.68,0-15.68,0s-4.64-1.35-4.64-5.29
		c0-4.48,6.64-5.67,6.64-5.67V20.59z"/>
	<path class="st2" d="M42.05,24.43c-0.73-1.14-1.85-2.03-3.27-2.59c-0.65-2.09-2.41-3.65-4.56-4.02c-0.96-0.16-1.93-0.08-2.84,0.23
		c-0.34-0.52-0.73-0.99-1.17-1.42c-2.17-2.09-6.1-3.45-9.62-1.5c-2.34,1.29-3.87,3.77-4.06,6.53c-2.77,0.47-5.11,2.29-6.02,4.74
		l-0.03,0.07c-0.58,1.62-0.34,3.37,0.67,4.81c1.04,1.48,2.74,2.37,4.54,2.37l0,0h21.83c2.68,0,5.01-1.97,5.4-4.58
		C43.19,27.38,42.88,25.73,42.05,24.43z M41.85,28.92c-0.32,2.08-2.17,3.65-4.32,3.65H15.7c-1.44,0-2.81-0.71-3.64-1.9
		c-0.8-1.14-0.99-2.53-0.53-3.81l0,0c0,0,0.02-0.06,0.02-0.06c0.82-2.21,3.01-3.82,5.58-4.11c0,0,0,0,0,0c0,0,0,0,0,0
		c1.34-0.16,2.7,0.05,3.95,0.63c0.07,0.03,0.15,0.05,0.23,0.05c0.21,0,0.4-0.12,0.5-0.32c0.13-0.27,0.01-0.6-0.27-0.73
		c-1.23-0.57-2.56-0.84-3.89-0.78c0.22-2.32,1.51-4.38,3.47-5.46c0.99-0.55,2.05-0.79,3.09-0.79c2.01,0,3.95,0.88,5.24,2.11
		c0.34,0.33,0.64,0.71,0.91,1.11c-0.66,0.38-1.25,0.89-1.72,1.5c-0.18,0.24-0.14,0.58,0.1,0.77c0.1,0.08,0.22,0.11,0.33,0.11
		c0.16,0,0.33-0.07,0.43-0.21c0.5-0.64,1.14-1.15,1.87-1.47c0,0,0,0,0,0c0,0,0,0,0,0c0.83-0.37,1.76-0.48,2.67-0.33
		c1.82,0.31,3.29,1.68,3.76,3.49c0.05,0.18,0.18,0.32,0.35,0.38c1.31,0.46,2.34,1.23,2.98,2.24C41.81,26.09,42.07,27.48,41.85,28.92
		z"/>
	<g>
		<path class="st2" d="M16.11,45.19c-1.14,0-2.23-0.61-2.77-1.55c-0.45-0.78-0.45-1.68,0.01-2.48l2.5-4.31
			c0.06-0.11,0.18-0.17,0.3-0.17c0,0,0.02,0,0.04,0c0.21,0,0.3,0.1,0.35,0.19l2.49,4.31c0.46,0.79,0.46,1.69,0.01,2.48
			c-0.54,0.94-1.63,1.55-2.77,1.55c0,0-0.06,0-0.08,0C16.17,45.19,16.14,45.19,16.11,45.19z M13.96,41.51
			c-0.33,0.55-0.33,1.24-0.01,1.79c0.41,0.73,1.26,1.17,2.24,1.17s1.83-0.45,2.24-1.17c0.33-0.56,0.33-1.24,0-1.8l-2.23-3.86
			L13.96,41.51z"/>
		<path class="st2" d="M18.85,41.27l-2.5-4.32c-0.04-0.07-0.13-0.08-0.2-0.07c-0.05,0-0.1,0.03-0.13,0.07l-2.5,4.32
			c-1.06,1.83,0.67,3.77,2.66,3.72C18.19,45.04,19.91,43.09,18.85,41.27z M18.61,43.41c-0.95,1.7-3.88,1.7-4.83,0
			c-0.37-0.62-0.36-1.39,0-2l2.41-4.16l2.41,4.16C18.97,42.03,18.97,42.8,18.61,43.41z"/>
		<path class="st2" d="M16.19,44.07c-0.19,0-0.35-0.16-0.35-0.35c0-0.09,0.04-0.18,0.1-0.25s0.15-0.1,0.25-0.1
			c0.79,0,1.46-0.45,1.63-1.09l0.01-0.02l0,0c0.04-0.14,0.18-0.24,0.33-0.24c0.03,0,0.06,0,0.09,0.01c0.19,0.05,0.3,0.24,0.25,0.43
			C18.25,43.41,17.3,44.07,16.19,44.07L16.19,44.07z"/>
		<path class="st2" d="M18.2,42.23c-0.08-0.02-0.16,0.02-0.18,0.1c0,0,0,0,0,0c-0.19,0.73-0.95,1.24-1.83,1.24
			c-0.08,0-0.14,0.07-0.14,0.15c0,0.08,0.06,0.14,0.14,0.14c1.01,0,1.88-0.6,2.11-1.46C18.32,42.33,18.28,42.25,18.2,42.23
			C18.2,42.23,18.2,42.23,18.2,42.23z"/>
	</g>
	<g>
		<path class="st2" d="M26.53,47.3c-1.14,0-2.23-0.61-2.77-1.55c-0.45-0.78-0.45-1.68,0.01-2.48l2.5-4.31
			c0.06-0.11,0.18-0.17,0.3-0.17c0,0,0.02,0,0.04,0c0.21,0,0.3,0.1,0.35,0.19l2.49,4.31c0.46,0.79,0.46,1.69,0.01,2.48
			c-0.54,0.94-1.63,1.55-2.77,1.55c0,0-0.06,0-0.08,0C26.58,47.3,26.55,47.3,26.53,47.3z M24.37,43.63
			c-0.33,0.55-0.33,1.24-0.01,1.79c0.41,0.73,1.26,1.17,2.24,1.17s1.83-0.45,2.24-1.17c0.33-0.56,0.33-1.24,0-1.8l-2.23-3.86
			L24.37,43.63z"/>
		<path class="st2" d="M29.26,43.38l-2.5-4.32c-0.04-0.07-0.13-0.08-0.2-0.07c-0.05,0-0.1,0.03-0.13,0.07l-2.5,4.32
			c-1.06,1.83,0.67,3.77,2.66,3.72C28.6,47.15,30.32,45.21,29.26,43.38z M29.02,45.52c-0.95,1.7-3.88,1.7-4.83,0
			c-0.37-0.62-0.36-1.39,0-2l2.41-4.16l2.41,4.16C29.38,44.14,29.38,44.91,29.02,45.52z"/>
		<path class="st2" d="M26.6,46.18c-0.19,0-0.35-0.16-0.35-0.35c0-0.09,0.04-0.18,0.1-0.25c0.07-0.07,0.15-0.1,0.25-0.1
			c0.79,0,1.46-0.45,1.63-1.09l0.01-0.02l0,0c0.04-0.14,0.18-0.24,0.33-0.24c0.03,0,0.06,0,0.09,0.01c0.19,0.05,0.3,0.24,0.25,0.43
			C28.66,45.52,27.71,46.18,26.6,46.18L26.6,46.18z"/>
		<path class="st2" d="M28.61,44.34c-0.08-0.02-0.16,0.02-0.18,0.1c0,0,0,0,0,0c-0.19,0.73-0.95,1.24-1.83,1.24
			c-0.08,0-0.14,0.07-0.14,0.15c0,0.08,0.06,0.14,0.14,0.14c1.01,0,1.88-0.6,2.11-1.46C28.73,44.44,28.69,44.36,28.61,44.34
			C28.61,44.34,28.61,44.34,28.61,44.34z"/>
	</g>
	<g>
		<path class="st2" d="M35.71,44.48c-1.14,0-2.23-0.61-2.77-1.55c-0.45-0.78-0.45-1.68,0.01-2.48l2.5-4.31
			c0.06-0.11,0.18-0.17,0.3-0.17c0,0,0.02,0,0.04,0c0.21,0,0.3,0.1,0.35,0.19l2.49,4.31c0.46,0.79,0.46,1.69,0.01,2.48
			c-0.54,0.94-1.63,1.55-2.77,1.55c0,0-0.06,0-0.08,0C35.77,44.48,35.74,44.48,35.71,44.48z M33.56,40.8
			c-0.33,0.55-0.33,1.24-0.01,1.79c0.41,0.73,1.26,1.17,2.24,1.17c0.98,0,1.83-0.45,2.24-1.17c0.33-0.56,0.33-1.24,0-1.8l-2.23-3.86
			L33.56,40.8z"/>
		<path class="st2" d="M38.45,40.56l-2.5-4.32c-0.04-0.07-0.13-0.08-0.2-0.07c-0.05,0-0.1,0.03-0.13,0.07l-2.5,4.32
			c-1.06,1.83,0.67,3.77,2.66,3.72C37.78,44.33,39.51,42.38,38.45,40.56z M38.2,42.7c-0.95,1.7-3.88,1.7-4.83,0
			c-0.37-0.62-0.36-1.39,0-2l2.41-4.16l2.41,4.16C38.57,41.32,38.57,42.09,38.2,42.7z"/>
		<path class="st2" d="M35.79,43.36c-0.19,0-0.35-0.16-0.35-0.35c0-0.09,0.04-0.18,0.1-0.25c0.07-0.07,0.15-0.1,0.25-0.1
			c0.79,0,1.46-0.45,1.63-1.09l0.01-0.02l0,0c0.04-0.14,0.18-0.24,0.33-0.24c0.03,0,0.06,0,0.09,0.01c0.19,0.05,0.3,0.24,0.25,0.43
			C37.84,42.69,36.89,43.36,35.79,43.36L35.79,43.36z"/>
		<path class="st2" d="M37.8,41.52c-0.08-0.02-0.16,0.02-0.18,0.1c0,0,0,0,0,0c-0.19,0.73-0.95,1.24-1.83,1.24
			c-0.08,0-0.14,0.07-0.14,0.15c0,0.08,0.06,0.14,0.14,0.14c1.01,0,1.88-0.6,2.11-1.46C37.92,41.62,37.87,41.54,37.8,41.52
			C37.8,41.52,37.8,41.52,37.8,41.52z"/>
	</g>
	<g>
		<path class="st1" d="M-41.81,37.85c-2.28,0-4.13-1.85-4.13-4.13c0-1.2,0.52-2.34,1.43-3.13V18.42c0-1.49,1.21-2.7,2.7-2.7
			c1.49,0,2.7,1.21,2.7,2.7V30.6c0.91,0.79,1.43,1.92,1.43,3.13C-37.68,36-39.53,37.85-41.81,37.85z M-41.81,16.43
			c-1.1,0-1.99,0.89-1.99,1.99v12.35c0,0.1-0.05,0.21-0.13,0.27c-0.82,0.65-1.3,1.63-1.3,2.68c0,1.89,1.54,3.42,3.42,3.42
			c1.89,0,3.43-1.54,3.43-3.42c0-1.05-0.47-2.03-1.3-2.68c-0.08-0.07-0.13-0.17-0.13-0.27V18.42
			C-39.81,17.32-40.71,16.43-41.81,16.43z"/>
		<path class="st1" d="M-39.21,30.64V18.42c0-1.43-1.17-2.6-2.6-2.6s-2.6,1.17-2.6,2.6v12.22c-0.91,0.77-1.43,1.89-1.43,3.08
			c0,2.22,1.81,4.03,4.03,4.03c2.22,0,4.04-1.81,4.04-4.03C-37.77,32.53-38.29,31.41-39.21,30.64z M-41.81,37.24
			c-1.94,0-3.52-1.58-3.52-3.52c0-1.08,0.48-2.09,1.33-2.76c0.06-0.05,0.1-0.12,0.1-0.2V18.42c0-1.15,0.93-2.09,2.09-2.09
			c1.15,0,2.09,0.93,2.09,2.09v12.35c0,0.08,0.04,0.15,0.1,0.2c0.85,0.67,1.33,1.68,1.33,2.76C-38.29,35.67-39.87,37.24-41.81,37.24
			z"/>
		<path class="st1" d="M-41.81,35.99c-1.28,0-2.32-1.04-2.32-2.32c0-1.15,0.84-2.12,1.97-2.29V19.51c0-0.19,0.16-0.35,0.35-0.35
			c0.19,0,0.35,0.16,0.35,0.35v1.7h0.98c0.19,0,0.35,0.16,0.35,0.35c0,0.19-0.16,0.35-0.35,0.35h-0.98v1.32h0.98
			c0.19,0,0.35,0.16,0.35,0.35c0,0.19-0.16,0.35-0.35,0.35h-0.98v1.32h0.98c0.19,0,0.35,0.16,0.35,0.35c0,0.19-0.16,0.35-0.35,0.35
			h-0.98v1.32h0.98c0.19,0,0.35,0.16,0.35,0.35c0,0.19-0.16,0.35-0.35,0.35h-0.98v1.32h0.98c0.19,0,0.35,0.16,0.35,0.35
			c0,0.19-0.16,0.35-0.35,0.35h-0.98v1.37c1.13,0.17,1.97,1.14,1.97,2.29C-39.49,34.95-40.53,35.99-41.81,35.99z M-41.81,32.06
			c-0.89,0-1.62,0.73-1.62,1.62c0,0.89,0.72,1.62,1.62,1.62c0.89,0,1.62-0.73,1.62-1.62C-40.19,32.78-40.92,32.06-41.81,32.06z"/>
		<path class="st1" d="M-41.55,31.46v-1.55h1.07c0.14,0,0.26-0.11,0.26-0.26c0-0.14-0.12-0.26-0.26-0.26h-1.07v-1.51h1.07
			c0.14,0,0.26-0.11,0.26-0.26s-0.12-0.26-0.26-0.26h-1.07v-1.51h1.07c0.14,0,0.26-0.11,0.26-0.26c0-0.14-0.12-0.26-0.26-0.26h-1.07
			v-1.51h1.07c0.14,0,0.26-0.11,0.26-0.26s-0.12-0.26-0.26-0.26h-1.07v-1.51h1.07c0.14,0,0.26-0.11,0.26-0.26
			c0-0.14-0.12-0.26-0.26-0.26h-1.07v-1.79c0-0.14-0.12-0.26-0.26-0.26c-0.14,0-0.26,0.11-0.26,0.26v11.95
			c-1.1,0.13-1.97,1.07-1.97,2.21c0,1.23,1,2.22,2.22,2.22c1.23,0,2.23-1,2.23-2.22C-39.58,32.54-40.44,31.59-41.55,31.46z
			 M-41.81,35.39c-0.94,0-1.71-0.77-1.71-1.71c0-0.94,0.77-1.71,1.71-1.71s1.71,0.77,1.71,1.71C-40.1,34.62-40.87,35.39-41.81,35.39
			z"/>
	</g>
</g>
</svg>
